<mxfile host="app.diagrams.net" modified="2023-10-18T21:07:11.215Z" agent="Mozilla/5.0 (Windows NT 10.0; Win64; x64) AppleWebKit/537.36 (KHTML, like Gecko) Chrome/118.0.0.0 Safari/537.36 Edg/118.0.2088.46" etag="GO29CUH1gL6ASxbl6kXn" version="22.0.4" type="dropbox">
  <diagram name="Página-1" id="ibt7Y343w27IkqaNSCeD">
    <mxGraphModel dx="1379" dy="793" grid="1" gridSize="10" guides="1" tooltips="1" connect="1" arrows="1" fold="1" page="1" pageScale="1" pageWidth="1654" pageHeight="1169" math="0" shadow="0">
      <root>
        <mxCell id="0" />
        <mxCell id="1" parent="0" />
        <mxCell id="36HSovh21uxilVbcSsQh-1" value="" style="ellipse;whiteSpace=wrap;html=1;aspect=fixed;fillColor=#d5e8d4;strokeColor=#82b366;" vertex="1" parent="1">
          <mxGeometry x="160" y="200" width="40" height="40" as="geometry" />
        </mxCell>
        <mxCell id="36HSovh21uxilVbcSsQh-2" value="" style="endArrow=classic;html=1;rounded=0;exitX=1;exitY=0.5;exitDx=0;exitDy=0;entryX=0;entryY=0.5;entryDx=0;entryDy=0;" edge="1" parent="1" source="36HSovh21uxilVbcSsQh-1" target="36HSovh21uxilVbcSsQh-3">
          <mxGeometry width="50" height="50" relative="1" as="geometry">
            <mxPoint x="680" y="430" as="sourcePoint" />
            <mxPoint x="290" y="220" as="targetPoint" />
          </mxGeometry>
        </mxCell>
        <mxCell id="36HSovh21uxilVbcSsQh-9" style="edgeStyle=orthogonalEdgeStyle;rounded=0;orthogonalLoop=1;jettySize=auto;html=1;exitX=1;exitY=0.5;exitDx=0;exitDy=0;" edge="1" parent="1" source="36HSovh21uxilVbcSsQh-3" target="36HSovh21uxilVbcSsQh-6">
          <mxGeometry relative="1" as="geometry" />
        </mxCell>
        <mxCell id="36HSovh21uxilVbcSsQh-3" value="&lt;b&gt;TRUNC(CREATION_DATE) = TRUNC(SYSDATE-2)&lt;/b&gt; Y VALIDAR NO ACEPTACIÓN" style="rounded=1;whiteSpace=wrap;html=1;fillColor=#dae8fc;strokeColor=#6c8ebf;" vertex="1" parent="1">
          <mxGeometry x="230" y="190" width="250" height="60" as="geometry" />
        </mxCell>
        <mxCell id="36HSovh21uxilVbcSsQh-4" value="Ejecución Diaria 10: 00 am" style="text;html=1;strokeColor=none;fillColor=none;align=center;verticalAlign=middle;whiteSpace=wrap;rounded=0;" vertex="1" parent="1">
          <mxGeometry x="130" y="160" width="100" height="30" as="geometry" />
        </mxCell>
        <mxCell id="36HSovh21uxilVbcSsQh-8" style="edgeStyle=orthogonalEdgeStyle;rounded=0;orthogonalLoop=1;jettySize=auto;html=1;exitX=1;exitY=0.5;exitDx=0;exitDy=0;entryX=0;entryY=0.5;entryDx=0;entryDy=0;" edge="1" parent="1" source="36HSovh21uxilVbcSsQh-6" target="36HSovh21uxilVbcSsQh-7">
          <mxGeometry relative="1" as="geometry" />
        </mxCell>
        <mxCell id="36HSovh21uxilVbcSsQh-6" value="ENVIAR SMS" style="rounded=1;whiteSpace=wrap;html=1;fillColor=#dae8fc;strokeColor=#6c8ebf;" vertex="1" parent="1">
          <mxGeometry x="520" y="190" width="110" height="60" as="geometry" />
        </mxCell>
        <mxCell id="36HSovh21uxilVbcSsQh-7" value="" style="ellipse;whiteSpace=wrap;html=1;aspect=fixed;fillColor=#f8cecc;strokeColor=#b85450;" vertex="1" parent="1">
          <mxGeometry x="670" y="200" width="40" height="40" as="geometry" />
        </mxCell>
        <mxCell id="36HSovh21uxilVbcSsQh-10" value="Ejecutar&amp;nbsp; Diaria cada hora" style="text;html=1;strokeColor=none;fillColor=none;align=center;verticalAlign=middle;whiteSpace=wrap;rounded=0;" vertex="1" parent="1">
          <mxGeometry x="130" y="320" width="100" height="30" as="geometry" />
        </mxCell>
        <mxCell id="36HSovh21uxilVbcSsQh-11" value="" style="ellipse;whiteSpace=wrap;html=1;aspect=fixed;fillColor=#d5e8d4;strokeColor=#82b366;" vertex="1" parent="1">
          <mxGeometry x="160" y="360" width="40" height="40" as="geometry" />
        </mxCell>
        <mxCell id="36HSovh21uxilVbcSsQh-12" value="" style="endArrow=classic;html=1;rounded=0;exitX=1;exitY=0.5;exitDx=0;exitDy=0;entryX=0;entryY=0.5;entryDx=0;entryDy=0;" edge="1" parent="1" source="36HSovh21uxilVbcSsQh-11" target="36HSovh21uxilVbcSsQh-14">
          <mxGeometry width="50" height="50" relative="1" as="geometry">
            <mxPoint x="680" y="590" as="sourcePoint" />
            <mxPoint x="290" y="380" as="targetPoint" />
          </mxGeometry>
        </mxCell>
        <mxCell id="36HSovh21uxilVbcSsQh-13" style="edgeStyle=orthogonalEdgeStyle;rounded=0;orthogonalLoop=1;jettySize=auto;html=1;exitX=1;exitY=0.5;exitDx=0;exitDy=0;" edge="1" parent="1" source="36HSovh21uxilVbcSsQh-14" target="36HSovh21uxilVbcSsQh-16">
          <mxGeometry relative="1" as="geometry" />
        </mxCell>
        <mxCell id="36HSovh21uxilVbcSsQh-14" value="&lt;b&gt;TRUNC(SR.CREATION_DATE, &#39;HH24&#39;) = TRUNC(SYSDATE - 2, &#39;HH24&#39;)&lt;/b&gt;&lt;br&gt;&amp;nbsp;Y VALIDAR NO ACEPTACIÓN" style="rounded=1;whiteSpace=wrap;html=1;fillColor=#dae8fc;strokeColor=#6c8ebf;" vertex="1" parent="1">
          <mxGeometry x="230" y="350" width="250" height="60" as="geometry" />
        </mxCell>
        <mxCell id="36HSovh21uxilVbcSsQh-15" style="edgeStyle=orthogonalEdgeStyle;rounded=0;orthogonalLoop=1;jettySize=auto;html=1;exitX=1;exitY=0.5;exitDx=0;exitDy=0;entryX=0;entryY=0.5;entryDx=0;entryDy=0;" edge="1" parent="1" source="36HSovh21uxilVbcSsQh-16" target="36HSovh21uxilVbcSsQh-17">
          <mxGeometry relative="1" as="geometry" />
        </mxCell>
        <mxCell id="36HSovh21uxilVbcSsQh-16" value="ENVIAR SMS" style="rounded=1;whiteSpace=wrap;html=1;fillColor=#dae8fc;strokeColor=#6c8ebf;" vertex="1" parent="1">
          <mxGeometry x="520" y="350" width="110" height="60" as="geometry" />
        </mxCell>
        <mxCell id="36HSovh21uxilVbcSsQh-17" value="" style="ellipse;whiteSpace=wrap;html=1;aspect=fixed;fillColor=#f8cecc;strokeColor=#b85450;" vertex="1" parent="1">
          <mxGeometry x="670" y="360" width="40" height="40" as="geometry" />
        </mxCell>
      </root>
    </mxGraphModel>
  </diagram>
</mxfile>
